<svg viewBox="0 0 32 32" xmlns="http://www.w3.org/2000/svg"><g fill="none"><path d="M25 17.5V28H4V7h7.53c.075-1.065.33-2.07.72-3H4C2.35 4 1 5.35 1 7v21c0 1.65 1.35 3 3 3h21c1.65 0 3-1.35 3-3v-7.5l-3-3z" fill="#FFF"/><path d="M26.95 11.335L31.63 16l-2.13 2.13-4.68-4.68a6.651 6.651 0 0 1-3.585 1.05A6.738 6.738 0 0 1 14.5 7.75 6.741 6.741 0 0 1 21.25 1 6.741 6.741 0 0 1 28 7.75a6.69 6.69 0 0 1-1.05 3.585zm-5.7.165c2.07 0 3.75-1.68 3.75-3.75C25 5.68 23.32 4 21.25 4c-2.07 0-3.75 1.68-3.75 3.75 0 2.07 1.68 3.75 3.75 3.75z" fill="#008EFF"/><path d="M12.55 24.7l-1.05 1.05-4.5-4.5 4.5-4.5 1.05 1.05-3.45 3.45 3.45 3.45zm7.464-3.45L16.75 17.8l.993-1.05L22 21.25l-4.257 4.5-.993-1.05 3.264-3.45z" fill="red"/></g></svg>