<svg viewBox="0 0 16 16" height="16" width="16" xmlns="http://www.w3.org/2000/svg"><g fill="none"><path d="M12 9v5H2V4h3.265C5.5 3 5.5 3 6 2H2a2 2 0 0 0-2 2v10a2 2 0 0 0 2 2h10a2 2 0 0 0 2-2v-3l-2-2z" fill="#2F2F2F"/><path d="M13.225 6.168l2.34 2.332L14.5 9.565l-2.34-2.34a3.326 3.326 0 0 1-1.793.525A3.369 3.369 0 0 1 7 4.375 3.37 3.37 0 0 1 10.375 1a3.37 3.37 0 0 1 3.375 3.375c0 .66-.195 1.268-.525 1.793zm-2.85.082a1.876 1.876 0 1 0-.001-3.751 1.876 1.876 0 0 0 .001 3.751z" fill="#008EFF"/><path d="M6 12.917l-.568.583L3 11l2.432-2.5.568.583L4.135 11 6 12.917zM9.865 11L8 9.083l.568-.583L11 11l-2.432 2.5L8 12.917 9.865 11z" fill="red"/></g></svg>